{
  "duration": 7.5,
  "notes": [
    {
      "start": 0.0,
      "duration": 0.117188,
      "velocity": 76,
      "note": 42,
      "channel": 0
    },
    {
      "start": 0.0,
      "duration": 0.117188,
      "velocity": 50,
      "note": 43,
      "channel": 2
    },
    {
      "start": 0.0,
      "duration": 1.875,
      "velocity": 50,
      "note": 50,
      "channel": 1
    },
    {
      "start": 0.0,
      "duration": 1.875,
      "velocity": 50,
      "note": 23,
      "channel": 1
    },
    {
      "start": 0.0,
      "duration": 1.875,
      "velocity": 50,
      "note": 54,
      "channel": 1
    },
    {
      "start": 0.117188,
      "duration": 0.117187,
      "velocity": 76,
      "note": 45,
      "channel": 0
    },
    {
      "start": 0.234375,
      "duration": 0.117187,
      "velocity": 76,
      "note": 47,
      "channel": 0
    },
    {
      "start": 0.351562,
      "duration": 0.117188,
      "velocity": 76,
      "note": 50,
      "channel": 0
    },
    {
      "start": 0.585938,
      "duration": 0.117187,
      "velocity": 76,
      "note": 45,
      "channel": 0
    },
    {
      "start": 0.703125,
      "duration": 0.117187,
      "velocity": 76,
      "note": 47,
      "channel": 0
    },
    {
      "start": 0.820312,
      "duration": 0.117188,
      "velocity": 76,
      "note": 50,
      "channel": 0
    },
    {
      "start": 0.9375,
      "duration": 0.117188,
      "velocity": 76,
      "note": 42,
      "channel": 0
    },
    {
      "start": 1.054688,
      "duration": 0.117187,
      "velocity": 76,
      "note": 45,
      "channel": 0
    },
    {
      "start": 1.171875,
      "duration": 0.117187,
      "velocity": 76,
      "note": 47,
      "channel": 0
    },
    {
      "start": 1.289062,
      "duration": 0.117188,
      "velocity": 76,
      "note": 50,
      "channel": 0
    },
    {
      "start": 1.40625,
      "duration": 0.117188,
      "velocity": 76,
      "note": 42,
      "channel": 0
    },
    {
      "start": 1.523438,
      "duration": 0.117187,
      "velocity": 76,
      "note": 45,
      "channel": 0
    },
    {
      "start": 1.640625,
      "duration": 0.117187,
      "velocity": 76,
      "note": 47,
      "channel": 0
    },
    {
      "start": 1.757812,
      "duration": 0.117188,
      "velocity": 76,
      "note": 50,
      "channel": 0
    },
    {
      "start": 1.875,
      "duration": 0.117188,
      "velocity": 76,
      "note": 43,
      "channel": 0
    },
    {
      "start": 1.875,
      "duration": 0.117188,
      "velocity": 50,
      "note": 43,
      "channel": 2
    },
    {
      "start": 1.875,
      "duration": 1.875,
      "velocity": 50,
      "note": 47,
      "channel": 1
    },
    {
      "start": 1.875,
      "duration": 1.875,
      "velocity": 50,
      "note": 19,
      "channel": 1
    },
    {
      "start": 1.875,
      "duration": 1.875,
      "velocity": 50,
      "note": 55,
      "channel": 1
    },
    {
      "start": 1.992188,
      "duration": 0.117187,
      "velocity": 76,
      "note": 45,
      "channel": 0
    },
    {
      "start": 2.109375,
      "duration": 0.117187,
      "velocity": 76,
      "note": 47,
      "channel": 0
    },
    {
      "start": 2.226562,
      "duration": 0.117188,
      "velocity": 76,
      "note": 50,
      "channel": 0
    },
    {
      "start": 2.34375,
      "duration": 0.117188,
      "velocity": 76,
      "note": 43,
      "channel": 0
    },
    {
      "start": 2.460938,
      "duration": 0.117187,
      "velocity": 76,
      "note": 45,
      "channel": 0
    },
    {
      "start": 2.578125,
      "duration": 0.117187,
      "velocity": 76,
      "note": 47,
      "channel": 0
    },
    {
      "start": 2.695312,
      "duration": 0.117188,
      "velocity": 76,
      "note": 50,
      "channel": 0
    },
    {
      "start": 2.8125,
      "duration": 0.117188,
      "velocity": 76,
      "note": 43,
      "channel": 0
    },
    {
      "start": 2.929688,
      "duration": 0.117187,
      "velocity": 76,
      "note": 45,
      "channel": 0
    },
    {
      "start": 3.046875,
      "duration": 0.117187,
      "velocity": 76,
      "note": 47,
      "channel": 0
    },
    {
      "start": 3.164062,
      "duration": 0.117188,
      "velocity": 76,
      "note": 50,
      "channel": 0
    },
    {
      "start": 3.28125,
      "duration": 0.117188,
      "velocity": 76,
      "note": 43,
      "channel": 0
    },
    {
      "start": 3.398438,
      "duration": 0.117187,
      "velocity": 76,
      "note": 45,
      "channel": 0
    },
    {
      "start": 3.515625,
      "duration": 0.117187,
      "velocity": 76,
      "note": 47,
      "channel": 0
    },
    {
      "start": 3.632812,
      "duration": 0.117188,
      "velocity": 76,
      "note": 50,
      "channel": 0
    },
    {
      "start": 3.75,
      "duration": 0.117188,
      "velocity": 76,
      "note": 47,
      "channel": 0
    },
    {
      "start": 3.75,
      "duration": 0.117188,
      "velocity": 50,
      "note": 43,
      "channel": 2
    },
    {
      "start": 3.75,
      "duration": 1.875,
      "velocity": 50,
      "note": 50,
      "channel": 1
    },
    {
      "start": 3.75,
      "duration": 1.875,
      "velocity": 50,
      "note": 26,
      "channel": 1
    },
    {
      "start": 3.75,
      "duration": 1.875,
      "velocity": 50,
      "note": 54,
      "channel": 1
    },
    {
      "start": 3.867188,
      "duration": 0.117187,
      "velocity": 76,
      "note": 50,
      "channel": 0
    },
    {
      "start": 3.984375,
      "duration": 0.117187,
      "velocity": 76,
      "note": 52,
      "channel": 0
    },
    {
      "start": 4.101562,
      "duration": 0.117188,
      "velocity": 76,
      "note": 54,
      "channel": 0
    },
    {
      "start": 4.21875,
      "duration": 0.117188,
      "velocity": 76,
      "note": 47,
      "channel": 0
    },
    {
      "start": 4.335938,
      "duration": 0.117187,
      "velocity": 76,
      "note": 50,
      "channel": 0
    },
    {
      "start": 4.453125,
      "duration": 0.117187,
      "velocity": 76,
      "note": 52,
      "channel": 0
    },
    {
      "start": 4.570312,
      "duration": 0.117188,
      "velocity": 76,
      "note": 54,
      "channel": 0
    },
    {
      "start": 4.6875,
      "duration": 0.117188,
      "velocity": 76,
      "note": 47,
      "channel": 0
    },
    {
      "start": 4.804688,
      "duration": 0.117187,
      "velocity": 76,
      "note": 50,
      "channel": 0
    },
    {
      "start": 4.921875,
      "duration": 0.117187,
      "velocity": 76,
      "note": 52,
      "channel": 0
    },
    {
      "start": 5.039062,
      "duration": 0.117188,
      "velocity": 76,
      "note": 54,
      "channel": 0
    },
    {
      "start": 5.15625,
      "duration": 0.117188,
      "velocity": 76,
      "note": 47,
      "channel": 0
    },
    {
      "start": 5.273438,
      "duration": 0.117187,
      "velocity": 76,
      "note": 50,
      "channel": 0
    },
    {
      "start": 5.390625,
      "duration": 0.117187,
      "velocity": 76,
      "note": 52,
      "channel": 0
    },
    {
      "start": 5.507812,
      "duration": 0.117188,
      "velocity": 76,
      "note": 54,
      "channel": 0
    },
    {
      "start": 5.625,
      "duration": 0.117188,
      "velocity": 76,
      "note": 45,
      "channel": 0
    },
    {
      "start": 5.625,
      "duration": 0.117188,
      "velocity": 50,
      "note": 43,
      "channel": 2
    },
    {
      "start": 5.625,
      "duration": 1.40625,
      "velocity": 50,
      "note": 49,
      "channel": 1
    },
    {
      "start": 5.625,
      "duration": 1.40625,
      "velocity": 50,
      "note": 21,
      "channel": 1
    },
    {
      "start": 5.625,
      "duration": 1.40625,
      "velocity": 50,
      "note": 52,
      "channel": 1
    },
    {
      "start": 5.742188,
      "duration": 0.117187,
      "velocity": 76,
      "note": 47,
      "channel": 0
    },
    {
      "start": 5.859375,
      "duration": 0.117187,
      "velocity": 76,
      "note": 49,
      "channel": 0
    },
    {
      "start": 5.976562,
      "duration": 0.117188,
      "velocity": 76,
      "note": 52,
      "channel": 0
    },
    {
      "start": 6.09375,
      "duration": 0.117188,
      "velocity": 76,
      "note": 45,
      "channel": 0
    },
    {
      "start": 6.210938,
      "duration": 0.117187,
      "velocity": 76,
      "note": 47,
      "channel": 0
    },
    {
      "start": 6.328125,
      "duration": 0.117187,
      "velocity": 76,
      "note": 49,
      "channel": 0
    },
    {
      "start": 6.445312,
      "duration": 0.117188,
      "velocity": 76,
      "note": 52,
      "channel": 0
    },
    {
      "start": 6.5625,
      "duration": 0.117188,
      "velocity": 76,
      "note": 45,
      "channel": 0
    },
    {
      "start": 6.679688,
      "duration": 0.117187,
      "velocity": 76,
      "note": 47,
      "channel": 0
    },
    {
      "start": 6.796875,
      "duration": 0.117187,
      "velocity": 76,
      "note": 49,
      "channel": 0
    },
    {
      "start": 6.914062,
      "duration": 0.117188,
      "velocity": 76,
      "note": 52,
      "channel": 0
    },
    {
      "start": 7.03125,
      "duration": 0.117188,
      "velocity": 76,
      "note": 45,
      "channel": 0
    },
    {
      "start": 7.03125,
      "duration": 0.117188,
      "velocity": 50,
      "note": 52,
      "channel": 1
    },
    {
      "start": 7.148438,
      "duration": 0.117187,
      "velocity": 76,
      "note": 47,
      "channel": 0
    },
    {
      "start": 7.148438,
      "duration": 0.117187,
      "velocity": 50,
      "note": 49,
      "channel": 1
    },
    {
      "start": 7.265625,
      "duration": 0.117187,
      "velocity": 76,
      "note": 49,
      "channel": 0
    },
    {
      "start": 7.265625,
      "duration": 0.117187,
      "velocity": 50,
      "note": 45,
      "channel": 1
    },
    {
      "start": 7.382812,
      "duration": 0.117188,
      "velocity": 76,
      "note": 52,
      "channel": 0
    },
    {
      "start": 7.382812,
      "duration": 0.117188,
      "velocity": 50,
      "note": 40,
      "channel": 1
    }
  ]
}